<svg width="26" height="26" viewBox="0 0 26 26" fill="none" xmlns="http://www.w3.org/2000/svg">
<path fill-rule="evenodd" clip-rule="evenodd" d="M20.5833 10.833C20.5833 6.43557 18.1584 3.38346 15.0208 2.4672C14.9072 2.17323 14.7277 1.89995 14.4836 1.67064C13.6497 0.88713 12.3503 0.88713 11.5164 1.67064C11.2729 1.89945 11.0936 2.17203 10.9799 2.46526C7.8383 3.37754 5.41667 6.42297 5.41667 10.833C5.41667 13.6864 4.8414 15.2853 3.77646 16.4439C3.59844 16.6376 3.11615 17.0813 2.78937 17.3819L2.78927 17.382L2.78921 17.3821L2.78919 17.3821C2.6346 17.5243 2.51485 17.6345 2.47863 17.6709L2.16667 17.9873V21.6816H8.76198C8.98499 22.8321 9.60927 23.6019 10.7382 24.2908C12.127 25.1383 13.873 25.1383 15.2618 24.2908C16.2581 23.6828 16.9262 22.7484 17.1972 21.6816H23.8333V17.9873L23.5214 17.6709C23.4885 17.6377 23.3737 17.5317 23.2236 17.3933L23.2235 17.3931L23.2234 17.3931C22.8976 17.0926 22.4058 16.6388 22.225 16.4414C21.1593 15.2773 20.5833 13.6764 20.5833 10.833ZM14.8815 21.6816H11.0268C11.1799 21.9663 11.4408 22.1813 11.8669 22.4413C12.5626 22.8659 13.4374 22.8659 14.1332 22.4413C14.4553 22.2447 14.7071 21.9846 14.8815 21.6816ZM20.6269 17.9044C20.8548 18.1534 21.3434 18.6086 21.6667 18.9059V19.5149H4.33334V18.9064C4.65408 18.6125 5.14414 18.1577 5.3717 17.9101C6.81875 16.3357 7.58334 14.2106 7.58334 10.833C7.58334 6.73789 10.1105 4.34642 13 4.34642C15.8814 4.34642 18.4167 6.75024 18.4167 10.833C18.4167 14.1998 19.1815 16.3255 20.6269 17.9044Z" fill="#1A1A1A"/>
</svg>
