<svg width="323" height="323" viewBox="0 0 323 323" fill="none" xmlns="http://www.w3.org/2000/svg">
<g clip-path="url(#clip0_78_6696)">
<path d="M229.84 85.483L63.2166 133.356C51.7137 136.661 45.0679 148.665 48.3728 160.168L78.2934 264.308C81.5983 275.811 93.6025 282.456 105.105 279.151L271.729 231.279C283.232 227.974 289.878 215.969 286.573 204.466L256.652 100.327C253.347 88.8239 241.343 82.1781 229.84 85.483Z" stroke="white" stroke-width="21.6705" stroke-linecap="round" stroke-linejoin="round"/>
<path d="M230.073 243.247L182.2 76.6234C180.613 71.0995 176.897 66.4323 171.868 63.6485C166.84 60.8648 160.912 60.1925 155.388 61.7796L113.732 73.7478C108.208 75.3349 103.541 79.0513 100.757 84.0796C97.9736 89.1078 97.3013 95.036 98.8884 100.56L146.761 267.183" stroke="white" stroke-width="21.6705" stroke-linecap="round" stroke-linejoin="round"/>
</g>
<defs>
<clipPath id="clip0_78_6696">
<rect width="260.047" height="260.047" fill="white" transform="translate(0.617188 72.4263) rotate(-16.03)"/>
</clipPath>
</defs>
</svg>
