<svg width="23" height="28" viewBox="0 0 23 28" fill="none" xmlns="http://www.w3.org/2000/svg">
<g clip-path="url(#clip0_293_10391)">
<path d="M18.9205 2.26172C21.3297 2.26172 23.2788 4.21073 23.2788 6.61993V21.1293C23.2788 23.5385 21.3297 25.4875 18.9205 25.4875H16.1053V16.4733H19.11L19.5431 12.9813H16.1053V10.7345C16.1053 9.73294 16.376 9.0562 17.8378 9.0562L19.6785 9.02913V5.91612C19.3537 5.86198 18.2438 5.78077 16.9715 5.78077C14.3187 5.78077 12.478 7.40495 12.478 10.4097V12.9813H9.44617V16.4733H12.478V25.4875H4.43829C2.02909 25.4875 0.0800781 23.5385 0.0800781 21.1293V6.61993C0.0800781 4.21073 2.02909 2.26172 4.43829 2.26172H18.9205Z" fill="#44A5FF"/>
</g>
<defs>
<clipPath id="clip0_293_10391">
<rect width="22.84" height="27.0696" fill="white" transform="translate(0.0800781 0.340088)"/>
</clipPath>
</defs>
</svg>
