<svg width="14" height="11" viewBox="0 0 14 11" fill="none" xmlns="http://www.w3.org/2000/svg">
<g clip-path="url(#clip0_537_31098)">
<mask id="mask0_537_31098" style="mask-type:alpha" maskUnits="userSpaceOnUse" x="0" y="0" width="14" height="11">
<path d="M12.6667 0.5H1.33333C0.596954 0.5 0 1.09695 0 1.83333V9.16667C0 9.90305 0.596954 10.5 1.33333 10.5H12.6667C13.403 10.5 14 9.90305 14 9.16667V1.83333C14 1.09695 13.403 0.5 12.6667 0.5Z" fill="white"/>
</mask>
<g mask="url(#mask0_537_31098)">
<path d="M12.6667 0.5H1.33333C0.596954 0.5 0 1.09695 0 1.83333V9.16667C0 9.90305 0.596954 10.5 1.33333 10.5H12.6667C13.403 10.5 14 9.90305 14 9.16667V1.83333C14 1.09695 13.403 0.5 12.6667 0.5Z" fill="#22438B"/>
<path fill-rule="evenodd" clip-rule="evenodd" d="M2 1.16699L0.649338 1.18433L0.666671 2.50033L11.988 9.85233L13.346 9.82766L13.3207 8.51966L2 1.16699Z" fill="white"/>
<path fill-rule="evenodd" clip-rule="evenodd" d="M1.33334 1.16699L0.666672 1.83366L12.6667 9.83366L13.3333 9.16699L1.33334 1.16699Z" fill="#C7152A"/>
<path fill-rule="evenodd" clip-rule="evenodd" d="M12 1.16699H13.3333V2.50033C13.3333 2.50033 5.50001 7.43099 2.01201 9.85233C1.97001 9.88166 0.680009 9.85433 0.680009 9.85433L0.576675 8.58699L12 1.16699Z" fill="white"/>
<path fill-rule="evenodd" clip-rule="evenodd" d="M12.6953 1.14746L13.3333 1.83279L1.33334 9.83279L0.666672 9.16613L12.6953 1.14746Z" fill="#C7152A"/>
<path fill-rule="evenodd" clip-rule="evenodd" d="M5.33334 1.16699H8.66667V3.83366H13.3333V7.16699H8.66667V9.83366H5.33334V7.16699H0.666672V3.83366H5.33334V1.16699Z" fill="white"/>
<path fill-rule="evenodd" clip-rule="evenodd" d="M6.00001 1.16699H8.00001V4.50033H13.3333V6.50033H8.00001V9.83366H6.00001V6.50033H0.666672V4.50033H6.00001V1.16699Z" fill="#C7152A"/>
<path d="M12.6667 0.833008H1.33333C0.781043 0.833008 0.333328 1.28072 0.333328 1.83301V9.16634C0.333328 9.71863 0.781043 10.1663 1.33333 10.1663H12.6667C13.2189 10.1663 13.6667 9.71863 13.6667 9.16634V1.83301C13.6667 1.28072 13.2189 0.833008 12.6667 0.833008Z" stroke="black" stroke-opacity="0.1" stroke-width="0.666667"/>
</g>
</g>
<defs>
<clipPath id="clip0_537_31098">
<rect width="14" height="10" fill="white" transform="translate(0 0.5)"/>
</clipPath>
</defs>
</svg>
