<svg width="24" height="24" viewBox="0 0 24 24" fill="none" xmlns="http://www.w3.org/2000/svg">
<mask id="mask0_293_10372" style="mask-type:luminance" maskUnits="userSpaceOnUse" x="0" y="0" width="24" height="24">
<path d="M23.1563 9.5625H12.2656V14.0781H18.5344C17.95 16.9469 15.5063 18.5938 12.2656 18.5938C8.44063 18.5938 5.35938 15.5125 5.35938 11.6875C5.35938 7.8625 8.44063 4.78125 12.2656 4.78125C13.9125 4.78125 15.4 5.36562 16.5688 6.32187L19.9688 2.92188C17.8969 1.11562 15.2406 0 12.2656 0C5.78438 0 0.578125 5.20625 0.578125 11.6875C0.578125 18.1688 5.78438 23.375 12.2656 23.375C18.1094 23.375 23.4219 19.125 23.4219 11.6875C23.4219 10.9969 23.3156 10.2531 23.1563 9.5625Z" fill="white"/>
</mask>
<g mask="url(#mask0_293_10372)">
<path d="M-0.484375 18.5938V4.78125L8.54688 11.6875L-0.484375 18.5938Z" fill="#FBBC05"/>
</g>
<mask id="mask1_293_10372" style="mask-type:luminance" maskUnits="userSpaceOnUse" x="0" y="0" width="24" height="24">
<path d="M23.1563 9.5625H12.2656V14.0781H18.5344C17.95 16.9469 15.5063 18.5938 12.2656 18.5938C8.44063 18.5938 5.35938 15.5125 5.35938 11.6875C5.35938 7.8625 8.44063 4.78125 12.2656 4.78125C13.9125 4.78125 15.4 5.36562 16.5688 6.32187L19.9688 2.92188C17.8969 1.11562 15.2406 0 12.2656 0C5.78438 0 0.578125 5.20625 0.578125 11.6875C0.578125 18.1688 5.78438 23.375 12.2656 23.375C18.1094 23.375 23.4219 19.125 23.4219 11.6875C23.4219 10.9969 23.3156 10.2531 23.1563 9.5625Z" fill="white"/>
</mask>
<g mask="url(#mask1_293_10372)">
<path d="M-0.484375 4.78125L8.54688 11.6875L12.2656 8.44687L25.0156 6.375V-1.0625H-0.484375V4.78125Z" fill="#EA4335"/>
</g>
<mask id="mask2_293_10372" style="mask-type:luminance" maskUnits="userSpaceOnUse" x="0" y="0" width="24" height="24">
<path d="M23.1563 9.5625H12.2656V14.0781H18.5344C17.95 16.9469 15.5063 18.5938 12.2656 18.5938C8.44063 18.5938 5.35938 15.5125 5.35938 11.6875C5.35938 7.8625 8.44063 4.78125 12.2656 4.78125C13.9125 4.78125 15.4 5.36562 16.5688 6.32187L19.9688 2.92188C17.8969 1.11562 15.2406 0 12.2656 0C5.78438 0 0.578125 5.20625 0.578125 11.6875C0.578125 18.1688 5.78438 23.375 12.2656 23.375C18.1094 23.375 23.4219 19.125 23.4219 11.6875C23.4219 10.9969 23.3156 10.2531 23.1563 9.5625Z" fill="white"/>
</mask>
<g mask="url(#mask2_293_10372)">
<path d="M-0.484375 18.5938L15.4531 6.375L19.65 6.90625L25.0156 -1.0625V24.4375H-0.484375V18.5938Z" fill="#34A853"/>
</g>
<mask id="mask3_293_10372" style="mask-type:luminance" maskUnits="userSpaceOnUse" x="0" y="0" width="24" height="24">
<path d="M23.1563 9.5625H12.2656V14.0781H18.5344C17.95 16.9469 15.5063 18.5938 12.2656 18.5938C8.44063 18.5938 5.35938 15.5125 5.35938 11.6875C5.35938 7.8625 8.44063 4.78125 12.2656 4.78125C13.9125 4.78125 15.4 5.36562 16.5688 6.32187L19.9688 2.92188C17.8969 1.11562 15.2406 0 12.2656 0C5.78438 0 0.578125 5.20625 0.578125 11.6875C0.578125 18.1688 5.78438 23.375 12.2656 23.375C18.1094 23.375 23.4219 19.125 23.4219 11.6875C23.4219 10.9969 23.3156 10.2531 23.1563 9.5625Z" fill="white"/>
</mask>
<g mask="url(#mask3_293_10372)">
<path d="M25.0156 24.4375L8.54688 11.6875L6.42188 10.0938L25.0156 4.78125V24.4375Z" fill="#4285F4"/>
</g>
</svg>
