<svg width="26" height="26" viewBox="0 0 26 26" fill="none" xmlns="http://www.w3.org/2000/svg">
<path fill-rule="evenodd" clip-rule="evenodd" d="M17.9327 2.16701C16.3644 2.16699 15.3534 2.35383 14.1945 2.92107C13.7655 3.13108 13.363 3.384 12.9891 3.67907C12.6297 3.40054 12.2433 3.15924 11.832 2.9558C10.6506 2.3715 9.5878 2.16699 8.07576 2.16699C4.02614 2.16699 1.08334 5.52236 1.08334 9.88019C1.08334 13.1712 2.91832 16.3503 6.33625 19.4244C8.1303 21.038 10.4209 22.6348 12.0614 23.4843L13 23.9703L13.9386 23.4843C15.5791 22.6348 17.8697 21.038 19.6638 19.4244C23.0817 16.3503 24.9167 13.1712 24.9167 9.88019C24.9167 5.56849 21.9461 2.18363 17.9327 2.16701ZM22.75 9.88019C22.75 12.4585 21.2184 15.1121 18.2149 17.8134C16.5774 19.2862 14.4722 20.758 13 21.5302C11.5278 20.758 9.42264 19.2862 7.78513 17.8134C4.78164 15.1121 3.25 12.4585 3.25 9.88019C3.25 6.66035 5.29061 4.33366 8.07576 4.33366C9.27797 4.33366 10.0188 4.47621 10.8714 4.89791C11.375 5.14699 11.8201 5.47589 12.2054 5.88691L13.0025 6.73725L13.7924 5.88017C14.1864 5.45269 14.638 5.1163 15.1471 4.86712C15.9747 4.46203 16.6693 4.33366 17.9282 4.33367C20.6789 4.34507 22.75 6.70504 22.75 9.88019Z" fill="#1A1A1A"/>
</svg>
