<svg width="19" height="19" viewBox="0 0 19 19" fill="none" xmlns="http://www.w3.org/2000/svg">
<path fill-rule="evenodd" clip-rule="evenodd" d="M17.583 9.5C17.583 4.94365 13.8894 1.25 9.33301 1.25C4.77666 1.25 1.08301 4.94365 1.08301 9.5C1.08301 14.0563 4.77666 17.75 9.33301 17.75C13.8894 17.75 17.583 14.0563 17.583 9.5ZM3.06475 6.99089C3.74978 5.2811 5.1141 3.91677 6.8239 3.23174C6.42274 4.00615 6.10805 4.97168 5.89595 6.06294C4.80468 6.27504 3.83916 6.58973 3.06475 6.99089ZM11.8421 3.23174C12.2433 4.00615 12.558 4.97168 12.7701 6.06295C13.8613 6.27504 14.8269 6.58973 15.6013 6.99089C14.9162 5.2811 13.5519 3.91677 11.8421 3.23174ZM2.58301 9.5C2.58301 8.82556 3.80452 8.09375 5.66887 7.65364C5.61229 8.24811 5.58301 8.86626 5.58301 9.5C5.58301 10.1337 5.61229 10.7519 5.66887 11.3464C3.80452 10.9063 2.58301 10.1744 2.58301 9.5ZM13.083 9.5C13.083 10.1337 13.0537 10.7519 12.9971 11.3464C14.8615 10.9063 16.083 10.1744 16.083 9.5C16.083 8.82556 14.8615 8.09375 12.9971 7.65364C13.0537 8.24811 13.083 8.86626 13.083 9.5ZM3.06475 12.0091C3.83916 12.4103 4.80468 12.725 5.89595 12.9371C6.10805 14.0283 6.42274 14.9938 6.8239 15.7683C5.1141 15.0832 3.74978 13.7189 3.06475 12.0091ZM12.7701 12.9371C12.558 14.0283 12.2433 14.9938 11.8421 15.7683C13.5519 15.0832 14.9162 13.7189 15.6013 12.0091C14.8269 12.4103 13.8613 12.725 12.7701 12.9371ZM7.08301 9.5C7.08301 8.75731 7.12959 8.04479 7.21247 7.37947C7.87779 7.29658 8.59032 7.25 9.33301 7.25C10.0757 7.25 10.7882 7.29658 11.4535 7.37947C11.5364 8.04479 11.583 8.75731 11.583 9.5C11.583 10.2427 11.5364 10.9552 11.4535 11.6205C10.7882 11.7034 10.0757 11.75 9.33301 11.75C8.59032 11.75 7.87779 11.7034 7.21247 11.6205C7.12959 10.9552 7.08301 10.2427 7.08301 9.5ZM7.48665 13.1641C7.92675 15.0285 8.65857 16.25 9.33301 16.25C10.0074 16.25 10.7393 15.0285 11.1794 13.1641C10.5849 13.2207 9.96675 13.25 9.33301 13.25C8.69926 13.25 8.08112 13.2207 7.48665 13.1641ZM9.33301 2.75C8.65857 2.75 7.92675 3.97151 7.48665 5.83586C8.08112 5.77929 8.69926 5.75 9.33301 5.75C9.96675 5.75 10.5849 5.77929 11.1794 5.83586C10.7393 3.97151 10.0074 2.75 9.33301 2.75Z" fill="#448FFF"/>
</svg>
