<svg width="22" height="21" viewBox="0 0 22 21" fill="none" xmlns="http://www.w3.org/2000/svg">
<path fill-rule="evenodd" clip-rule="evenodd" d="M12.1027 0.696073C13.1724 0.172464 14.1056 -1.53839e-06 15.5532 1.61018e-05C19.2579 0.0153583 22 3.13984 22 7.11988C22 10.1578 20.3062 13.0923 17.1512 15.9299C15.4951 17.4193 13.3807 18.8933 11.8664 19.6775L11 20.1261L10.1336 19.6775C8.61932 18.8933 6.50489 17.4193 4.84884 15.9299C1.69383 13.0923 0 10.1578 0 7.11988C0 3.09727 2.71644 0 6.45455 0C7.85028 0 8.83132 0.188775 9.92181 0.728134C10.3015 0.915918 10.6582 1.13866 10.99 1.39576C11.335 1.12339 11.7066 0.88993 12.1027 0.696073Z" fill="#448FFF"/>
</svg>
