<svg width="174" height="31" viewBox="0 0 174 31" fill="none" xmlns="http://www.w3.org/2000/svg">
<g clip-path="url(#clip0_7_139)">
<mask id="mask0_7_139" style="mask-type:luminance" maskUnits="userSpaceOnUse" x="0" y="0" width="174" height="31">
<path d="M174 0.275024H0V30.725H174V0.275024Z" fill="white"/>
</mask>
<g mask="url(#mask0_7_139)">
<path d="M48.4932 0.275024C48.8113 0.275024 48.9703 0.43203 48.9703 0.746043V4.08936C48.9703 4.40337 48.8113 4.56038 48.4932 4.56038H37.137V10.462H47.511C47.8291 10.462 48.0162 10.619 48.0162 10.933V14.1193C48.0162 14.4333 47.8291 14.5903 47.511 14.5903H37.137V20.1779H48.4932C48.8113 20.1779 48.9703 20.3349 48.9703 20.6489V23.9922C48.9703 24.3062 48.8113 24.4633 48.4932 24.4633H32.647C32.3289 24.4633 32.1699 24.3062 32.1699 23.9645V0.746043C32.1699 0.43203 32.3289 0.275024 32.647 0.275024H48.4932Z" fill="#1B1F4C"/>
<path d="M67.6603 6.9613C68.0438 6.9613 68.1374 7.21067 67.8848 7.52468L62.4406 15.3011L68.4461 23.8533C68.6706 24.1673 68.5677 24.4444 68.1935 24.4444H63.6379C63.4135 24.4444 63.2544 24.3152 63.1328 24.1304L59.5594 18.8845L55.9581 24.1304C55.8645 24.3152 55.7055 24.4444 55.4529 24.4444H50.9254C50.5419 24.4444 50.4484 24.1673 50.6728 23.8533L56.6783 15.3011L51.2061 7.52468C50.9535 7.21067 51.0751 6.9613 51.4586 6.9613H55.9861C56.2386 6.9613 56.3977 7.05366 56.5567 7.23837L59.5594 11.6715L62.5622 7.23837C62.6932 7.05366 62.8802 6.9613 63.1328 6.9613H67.6509H67.6603Z" fill="#1B1F4C"/>
<path d="M86.4439 15.4494C86.4439 22.6347 84.891 24.6019 79.1381 24.6019C77.8099 24.6019 76.6028 24.5742 75.2463 24.4172V30.2542C75.2463 30.5682 75.0875 30.7252 74.7693 30.7252H71.0372C70.7191 30.7252 70.5601 30.5682 70.5601 30.2542V8.1717C70.5601 7.73764 70.8126 7.48825 71.2242 7.39589C73.8152 6.98952 76.0039 6.80481 78.184 6.80481C84.8533 6.80481 86.4439 8.67963 86.4439 15.4586V15.4494ZM75.2463 10.7946V20.3813C76.1634 20.5013 77.2669 20.5659 78.0905 20.5659C81.2892 20.5659 81.7575 19.7255 81.7575 15.6895C81.7575 12.0045 81.5045 10.7854 78.408 10.7854H75.2463V10.7946Z" fill="#1B1F4C"/>
<path d="M104.853 15.4855V16.4553C104.853 17.0833 104.666 17.2957 103.843 17.2957H93.9094C93.9747 20.1034 94.7323 20.6022 97.4822 20.6022H103.086C103.404 20.6022 103.563 20.7591 103.563 21.0731V23.6683C103.563 24.0101 103.404 24.1394 103.123 24.1671C101.449 24.5088 99.1664 24.6012 97.0798 24.6012C90.6911 24.6012 89.1382 22.8187 89.1382 15.698C89.1382 8.57731 90.6911 6.7948 97.0798 6.7948C103.469 6.7948 104.826 8.51264 104.863 15.4763L104.853 15.4855ZM93.8811 14.2665H100.148C100.12 11.5142 99.3904 10.8031 97.0798 10.8031C94.77 10.8031 93.9181 11.5235 93.8811 14.2665Z" fill="#1B1F4C"/>
<path d="M117.696 7.14576C118.043 7.23812 118.202 7.36741 118.202 7.7738V10.332C118.202 10.6461 118.015 10.8031 117.659 10.8031H114.685C113.038 10.8031 112.468 11.0525 112.468 12.3916V23.9454C112.468 24.2872 112.309 24.4442 111.991 24.4442H108.23C107.912 24.4442 107.753 24.2872 107.753 23.9454V11.2002C107.753 7.26582 110.596 6.7948 113.478 6.7948C114.395 6.7948 116.574 6.88716 117.687 7.13652L117.696 7.14576Z" fill="#1B1F4C"/>
<path d="M125.799 2.12171C126.117 2.02935 126.304 2.24177 126.304 2.59272V7.05355H129.213C129.559 7.05355 129.756 7.21056 129.756 7.52457V10.0274C129.756 10.3415 129.569 10.4984 129.213 10.4984H126.304V19.023C126.304 20.3621 126.781 20.6115 128.174 20.6115H129.475C129.859 20.6115 130.017 20.7408 130.017 21.0825V23.7332C130.017 24.1118 129.859 24.2596 129.512 24.3243C128.409 24.5459 127.52 24.6013 126.827 24.6013C124.106 24.6013 121.636 24.509 121.636 20.5746V10.4892H119.765C119.419 10.4892 119.26 10.3322 119.26 10.0182V7.51534C119.26 7.20132 119.419 7.04432 119.765 7.04432H121.636V3.58094C121.636 3.26693 121.767 3.14686 122.076 3.08221L125.808 2.11247L125.799 2.12171Z" fill="#1B1F4C"/>
<path d="M137.34 22.0709C137.34 23.6594 136.33 24.6015 134.59 24.6015C132.85 24.6015 131.84 23.6687 131.84 22.0709C131.84 20.4731 132.821 19.568 134.59 19.568C136.358 19.568 137.34 20.4731 137.34 22.0709Z" fill="#448FFF"/>
<path d="M155.526 6.96126C155.843 6.96126 155.965 7.11827 155.965 7.43228V23.5393C155.965 23.9457 155.843 24.0103 155.526 24.075C153.374 24.4813 150.306 24.6014 147.93 24.6014C141.859 24.6014 140.306 23.4747 140.306 17.0743V7.42304C140.306 7.10903 140.493 6.95203 140.811 6.95203H144.543C144.862 6.95203 144.983 7.10903 144.983 7.42304V15.8829C144.983 20.3807 145.488 20.6024 148.397 20.6024H151.241V7.42304C151.241 7.10903 151.4 6.95203 151.718 6.95203H155.516L155.526 6.96126Z" fill="#1B1F4C"/>
<path d="M173.055 6.9613C173.401 6.9613 173.589 7.11831 173.589 7.43232V9.55654C173.589 9.80587 173.495 9.96291 173.364 10.1476L165.581 20.4546H173.458C173.803 20.4546 173.991 20.6116 173.991 20.9256V23.9549C173.991 24.2967 173.803 24.4536 173.458 24.4536H159.351C158.968 24.4536 158.781 24.2967 158.781 23.9549V21.9231C158.781 21.7015 158.846 21.5444 159.005 21.332L167.041 10.868H159.707C159.323 10.868 159.164 10.711 159.164 10.397V7.43232C159.164 7.11831 159.323 6.9613 159.707 6.9613H173.055Z" fill="#1B1F4C"/>
<path d="M0.355465 0.893677H22.0295C22.3475 0.893677 22.5065 1.28158 22.282 1.49399L18.2129 5.40991C18.1474 5.47457 18.0539 5.51151 17.9604 5.51151H0.355465C0.159024 5.51151 0 5.3545 0 5.16056V1.24463C0 1.05069 0.159024 0.893677 0.355465 0.893677Z" fill="#1B1F4C"/>
<path d="M10.9352 12.9096L12.4506 14.3688C12.6751 14.5905 12.5255 14.9692 12.1981 14.9692H0.355465C0.159024 14.9692 0 14.8122 0 14.6182V10.7023C0 10.5084 0.159024 10.3513 0.355465 10.3513H12.1887C12.5068 10.3513 12.6658 10.7393 12.4413 10.9517L10.9352 12.3924C10.7949 12.531 10.7949 12.7619 10.9352 12.9004V12.9096Z" fill="#1B1F4C"/>
<path d="M18.2129 19.9281L22.282 23.8441C22.5065 24.0657 22.3569 24.4444 22.0295 24.4444H0.355465C0.159024 24.4444 0 24.2873 0 24.0934V20.1774C0 19.9835 0.159024 19.8265 0.355465 19.8265H17.9604C18.0539 19.8265 18.1381 19.8634 18.2129 19.9281Z" fill="#1B1F4C"/>
<path d="M27.4453 23.8627L16.0891 12.9185C15.9488 12.7799 15.9488 12.549 16.0891 12.4105L27.4546 1.47546C27.6792 1.2538 28.0627 1.42005 28.0627 1.72482V23.6041C28.0533 23.9182 27.6698 24.0751 27.4453 23.8535V23.8627Z" fill="#448FFF"/>
</g>
</g>
<defs>
<clipPath id="clip0_7_139">
<rect width="174" height="30.45" fill="white" transform="translate(0 0.275024)"/>
</clipPath>
</defs>
</svg>
