<svg width="14" height="14" viewBox="0 0 14 14" fill="none" xmlns="http://www.w3.org/2000/svg">
<path fill-rule="evenodd" clip-rule="evenodd" d="M7.78273 3.81649L8.61398 4.63511L4.92836 8.37762C4.74342 8.56638 4.74342 8.87017 4.92836 9.05893C5.10386 9.23805 5.39702 9.23724 5.57064 9.05795L9.62562 4.93867C10.2176 4.33456 10.2176 3.36435 9.62562 2.76023C9.06082 2.18384 8.06146 2.19666 7.50792 2.76133L3.082 7.25426C2.08274 8.27359 2.08274 9.9104 3.082 10.9297C4.05232 11.9195 5.71919 11.9034 6.67436 10.9288L11.8363 5.68626L12.6676 6.5048L7.50663 11.7464C6.09852 13.1832 3.68023 13.2066 2.24887 11.7464C0.804897 10.2734 0.804897 7.91054 2.24987 6.43653L6.67579 1.94361C7.68112 0.918066 9.4319 0.895604 10.4589 1.94369C11.4954 3.00143 11.4954 4.69748 10.458 5.75617L6.40543 9.87294C5.77854 10.5204 4.7298 10.5233 4.09501 9.87541C3.46565 9.23304 3.46565 8.20351 4.09606 7.56008L7.78273 3.81649Z" fill="#606060"/>
</svg>
