<svg width="12" height="12" viewBox="0 0 12 12" fill="none" xmlns="http://www.w3.org/2000/svg">
<path fill-rule="evenodd" clip-rule="evenodd" d="M6.67147 3.27184L7.38397 3.97351L4.22487 7.18138C4.06635 7.34317 4.06635 7.60356 4.22487 7.76536C4.37529 7.91889 4.62658 7.91819 4.77539 7.76451L8.25109 4.23371C8.7585 3.71589 8.7585 2.88428 8.25109 2.36647C7.76697 1.87242 6.91038 1.88341 6.43592 2.36741L2.64227 6.21849C1.78577 7.0922 1.78577 8.49518 2.64227 9.36889C3.47397 10.2173 4.90272 10.2035 5.72143 9.36811L10.1459 4.87449L10.8585 5.5761L6.43481 10.0689C5.22786 11.3004 3.15504 11.3205 1.92817 10.0689C0.690469 8.80637 0.69047 6.78102 1.92902 5.51758L5.72266 1.66651C6.58437 0.787472 8.08504 0.768219 8.96534 1.66658C9.85375 2.57321 9.85375 4.02697 8.96454 4.93441L5.49093 8.46308C4.95359 9.01804 4.05467 9.02054 3.51057 8.46519C2.97112 7.91459 2.97112 7.03214 3.51147 6.48062L6.67147 3.27184Z" fill="#0066FF"/>
</svg>
