<svg width="18" height="18" viewBox="0 0 18 18" fill="none" xmlns="http://www.w3.org/2000/svg">
<path fill-rule="evenodd" clip-rule="evenodd" d="M9 17.4957L9.4933 17.0649C13.6415 13.4428 15.75 10.2801 15.75 7.5C15.75 3.563 12.6772 0.75 9 0.75C5.32279 0.75 2.25 3.563 2.25 7.5C2.25 10.2801 4.35848 13.4428 8.5067 17.0649L9 17.4957ZM9 15.4976C5.47996 12.3252 3.75 9.63692 3.75 7.5C3.75 4.42245 6.12309 2.25 9 2.25C11.8769 2.25 14.25 4.42245 14.25 7.5C14.25 9.63692 12.52 12.3252 9 15.4976ZM9 3.75C11.0711 3.75 12.75 5.42893 12.75 7.5C12.75 9.57107 11.0711 11.25 9 11.25C6.92893 11.25 5.25 9.57107 5.25 7.5C5.25 5.42893 6.92893 3.75 9 3.75ZM6.75 7.5C6.75 6.25736 7.75736 5.25 9 5.25C10.2426 5.25 11.25 6.25736 11.25 7.5C11.25 8.74264 10.2426 9.75 9 9.75C7.75736 9.75 6.75 8.74264 6.75 7.5Z" fill="#0066FF"/>
</svg>
