<svg width="28" height="28" viewBox="0 0 28 28" fill="none" xmlns="http://www.w3.org/2000/svg">
<path fill-rule="evenodd" clip-rule="evenodd" d="M11.6663 20.9999C6.51168 20.9999 2.33301 16.8212 2.33301 11.6666C2.33301 6.51193 6.51168 2.33325 11.6663 2.33325C16.821 2.33325 20.9997 6.51193 20.9997 11.6666C20.9997 13.8234 20.2681 15.8094 19.0395 17.3898L25.3246 23.675L23.6747 25.3249L17.3896 19.0398C15.8091 20.2683 13.8232 20.9999 11.6663 20.9999ZM18.6663 11.6666C18.6663 15.5326 15.5323 18.6666 11.6663 18.6666C7.80035 18.6666 4.66634 15.5326 4.66634 11.6666C4.66634 7.80059 7.80035 4.66659 11.6663 4.66659C15.5323 4.66659 18.6663 7.80059 18.6663 11.6666Z" fill="#448FFF"/>
</svg>
