<svg width="14" height="15" viewBox="0 0 14 15" fill="none" xmlns="http://www.w3.org/2000/svg">
<path fill-rule="evenodd" clip-rule="evenodd" d="M10.8828 12.6896L12.1761 11.3963L11.7206 9.74142L11.9191 9.26746L13.4167 8.42241V6.59344L11.9233 5.74485L11.7282 5.27173L12.1894 3.61605L10.8951 2.32366L9.24016 2.77904L8.76727 2.58076L7.92214 1.08301H6.09317L5.24458 2.57637L4.77157 2.77145L3.11615 2.30965L1.82391 3.60189L2.27936 5.25715L2.08108 5.73004L0.583328 6.57517V8.40362L2.07534 9.25409L2.27063 9.72762L1.80948 11.383L3.10221 12.6758L4.75747 12.2203L5.23042 12.4186L6.07557 13.9158H7.90407L8.75392 12.4237L9.22735 12.2284L10.8828 12.6896ZM10.9974 8.44795L10.4888 9.66253L10.8711 11.0513L10.5395 11.3829L9.15368 10.9968L7.93855 11.498L7.22594 12.7491H6.7567L6.04998 11.4972L4.83673 10.9885L3.44718 11.3708L3.11618 11.0398L3.50224 9.65395L3.00114 8.43892L1.74999 7.72575V7.25645L3.00247 6.54972L3.51119 5.33641L3.12885 3.94686L3.45917 3.61655L4.84502 4.00315L6.06056 3.50183L6.77209 2.24967H7.24087L7.9476 3.50215L9.1609 4.01087L10.5507 3.62846L10.8826 3.95981L10.4966 5.3454L10.9978 6.56083L12.25 7.27236V7.74114L10.9974 8.44795ZM6.99999 9.83301C5.71133 9.83301 4.66666 8.78834 4.66666 7.49967C4.66666 6.21101 5.71133 5.16634 6.99999 5.16634C8.28866 5.16634 9.33333 6.21101 9.33333 7.49967C9.33333 8.78834 8.28866 9.83301 6.99999 9.83301ZM8.16666 7.49967C8.16666 8.14401 7.64433 8.66634 7 8.66634C6.35566 8.66634 5.83333 8.14401 5.83333 7.49967C5.83333 6.85534 6.35566 6.33301 7 6.33301C7.64433 6.33301 8.16666 6.85534 8.16666 7.49967Z" fill="#1A1A1A"/>
</svg>
