<svg width="14" height="15" viewBox="0 0 14 15" fill="none" xmlns="http://www.w3.org/2000/svg">
<path fill-rule="evenodd" clip-rule="evenodd" d="M7 13.9163C3.45617 13.9163 0.583328 11.0435 0.583328 7.49967C0.583328 3.95585 3.45617 1.08301 7 1.08301C10.5438 1.08301 13.4167 3.95585 13.4167 7.49967C13.4167 11.0435 10.5438 13.9163 7 13.9163ZM11.3164 10.4891C11.905 9.64069 12.25 8.61047 12.25 7.49967C12.25 4.60018 9.89949 2.24967 6.99999 2.24967C4.1005 2.24967 1.74999 4.60018 1.74999 7.49967C1.74999 8.61047 2.09497 9.64069 2.68362 10.4891C3.34013 9.62188 4.88285 9.24967 7 9.24967C9.11714 9.24967 10.6599 9.62188 11.3164 10.4891ZM10.4794 11.4312C10.3087 10.8173 9.08213 10.4163 7 10.4163C4.91786 10.4163 3.69133 10.8173 3.5206 11.4312C4.44692 12.2516 5.66529 12.7497 6.99999 12.7497C8.3347 12.7497 9.55307 12.2516 10.4794 11.4312ZM6.99999 3.99967C5.5878 3.99967 4.66666 5.02387 4.66666 6.33301C4.66666 8.33231 5.69383 9.24967 6.99999 9.24967C8.29388 9.24967 9.33333 8.36278 9.33333 6.44967C9.33333 5.12059 8.40827 3.99967 6.99999 3.99967ZM5.83333 6.33301C5.83333 7.65674 6.31062 8.08301 6.99999 8.08301C7.68699 8.08301 8.16666 7.67374 8.16666 6.44967C8.16666 5.72075 7.70913 5.16634 6.99999 5.16634C6.26134 5.16634 5.83333 5.64224 5.83333 6.33301Z" fill="#1A1A1A"/>
</svg>
