<svg width="14" height="11" viewBox="0 0 14 11" fill="none" xmlns="http://www.w3.org/2000/svg">
<g clip-path="url(#clip0_537_31141)">
<mask id="mask0_537_31141" style="mask-type:alpha" maskUnits="userSpaceOnUse" x="0" y="0" width="14" height="11">
<path d="M12.6667 0.5H1.33333C0.596954 0.5 0 1.09695 0 1.83333V9.16667C0 9.90305 0.596954 10.5 1.33333 10.5H12.6667C13.403 10.5 14 9.90305 14 9.16667V1.83333C14 1.09695 13.403 0.5 12.6667 0.5Z" fill="white"/>
</mask>
<g mask="url(#mask0_537_31141)">
<path d="M12.6667 0.5H1.33333C0.596954 0.5 0 1.09695 0 1.83333V9.16667C0 9.90305 0.596954 10.5 1.33333 10.5H12.6667C13.403 10.5 14 9.90305 14 9.16667V1.83333C14 1.09695 13.403 0.5 12.6667 0.5Z" fill="#D4112A"/>
<path fill-rule="evenodd" clip-rule="evenodd" d="M0 7.83301H14V10.4997H0V7.83301Z" fill="#20BD42"/>
<path fill-rule="evenodd" clip-rule="evenodd" d="M0 0.5H14V3.16667H0V0.5Z" fill="#02A3BD"/>
<path fill-rule="evenodd" clip-rule="evenodd" d="M0 3.83366H14V7.16699H0V3.83366ZM3.33333 3.11033C3.22933 3.14699 3.11667 3.16699 3 3.16699C2.448 3.16699 2 2.71899 2 2.16699C2 1.61499 2.448 1.16699 3 1.16699C3.11667 1.16699 3.22933 1.18699 3.33333 1.22366C2.94467 1.36099 2.66667 1.73166 2.66667 2.16699C2.66667 2.60233 2.94467 2.97366 3.33333 3.11033Z" fill="white"/>
<path fill-rule="evenodd" clip-rule="evenodd" d="M4 1.83366H4.66667V2.50033H4V1.83366ZM4.66667 1.16699H5.33333V1.83366H4.66667V1.16699ZM5.33333 1.83366H6V2.50033H5.33333V1.83366ZM6 1.16699H6.66667V1.83366H6V1.16699ZM6.66667 1.83366H7.33333V2.50033H6.66667V1.83366ZM6 2.50033H6.66667V3.16699H6V2.50033ZM4.66667 2.50033H5.33333V3.16699H4.66667V2.50033Z" fill="#78CDDB"/>
<path d="M12.6667 0.833008H1.33333C0.781043 0.833008 0.333328 1.28072 0.333328 1.83301V9.16634C0.333328 9.71863 0.781043 10.1663 1.33333 10.1663H12.6667C13.2189 10.1663 13.6667 9.71863 13.6667 9.16634V1.83301C13.6667 1.28072 13.2189 0.833008 12.6667 0.833008Z" stroke="black" stroke-opacity="0.1" stroke-width="0.666667"/>
</g>
</g>
<defs>
<clipPath id="clip0_537_31141">
<rect width="14" height="10" fill="white" transform="translate(0 0.5)"/>
</clipPath>
</defs>
</svg>
